Normalized EMG Linear Envelopes
nRows=154
nColumns=4

endheader
time	 med_gas_r	  soleus_r	 tib_ant_r	
4.5	  0.002498	  0.020543	  0.001112	
4.5625	  0.002474	  0.020470	  0.001073	
4.625	  0.002369	  0.020458	  0.001051	
4.6875	  0.002274	  0.020329	  0.001058	
4.75	  0.002195	  0.019898	  0.001084	
4.8125	  0.002145	  0.019225	  0.001147	
4.875	  0.002134	  0.018440	  0.001224	
4.9375	  0.002150	  0.017718	  0.001270	
5	  0.002163	  0.017117	  0.001279	
5.0625	  0.002163	  0.016592	  0.001277	
5.125	  0.002180	  0.016097	  0.001276	
5.1875	  0.002183	  0.015659	  0.001253	
5.25	  0.002136	  0.015264	  0.001213	
5.3125	  0.001992	  0.014787	  0.001187	
5.375	  0.001729	  0.014149	  0.001174	
5.4375	  0.001408	  0.013406	  0.001160	
5.5	  0.001204	  0.013140	  0.001133	
5.5625	  0.001567	  0.014801	  0.001152	
5.625	  0.003409	  0.020796	  0.001356	
5.6875	  0.007964	  0.033892	  0.001933	
5.75	  0.016019	  0.054693	  0.002984	
5.8125	  0.026746	  0.078421	  0.004372	
5.875	  0.035136	  0.093997	  0.005490	
5.9375	  0.039506	  0.103429	  0.006191	
6	  0.049685	  0.129775	  0.007749	
6.0625	  0.069157	  0.173366	  0.010509	
6.125	  0.090015	  0.211225	  0.013061	
6.1875	  0.105319	  0.231415	  0.013728	
6.25	  0.117413	  0.247362	  0.013465	
6.3125	  0.126741	  0.266434	  0.013283	
6.375	  0.132533	  0.281691	  0.012998	
6.4375	  0.139590	  0.291877	  0.012793	
6.5	  0.152511	  0.308703	  0.013197	
6.5625	  0.175992	  0.336895	  0.014210	
6.625	  0.213188	  0.374207	  0.016265	
6.6875	  0.260957	  0.418633	  0.019977	
6.75	  0.313487	  0.456001	  0.025263	
6.8125	  0.357708	  0.478506	  0.030950	
6.875	  0.379777	  0.484531	  0.034593	
6.9375	  0.379858	  0.483257	  0.035276	
7	  0.369338	  0.487842	  0.034222	
7.0625	  0.368051	  0.494985	  0.033167	
7.125	  0.394184	  0.494791	  0.033535	
7.1875	  0.447326	  0.497498	  0.036136	
7.25	  0.508347	  0.511842	  0.039706	
7.3125	  0.564790	  0.530867	  0.042712	
7.375	  0.608440	  0.542952	  0.045016	
7.4375	  0.628297	  0.548365	  0.046521	
7.5	  0.629724	  0.554112	  0.048038	
7.5625	  0.628286	  0.557972	  0.050447	
7.625	  0.635788	  0.567719	  0.053441	
7.6875	  0.653780	  0.589663	  0.057077	
7.75	  0.678765	  0.621096	  0.062182	
7.8125	  0.707447	  0.645569	  0.066440	
7.875	  0.732273	  0.661047	  0.068006	
7.9375	  0.741024	  0.668127	  0.067902	
8	  0.725396	  0.657719	  0.067627	
8.0625	  0.695378	  0.639305	  0.068211	
8.125	  0.661773	  0.620486	  0.070153	
8.1875	  0.634065	  0.598605	  0.072068	
8.25	  0.620195	  0.582365	  0.071525	
8.3125	  0.620803	  0.582578	  0.068976	
8.375	  0.630867	  0.589322	  0.066940	
8.4375	  0.637849	  0.591426	  0.065710	
8.5	  0.631272	  0.593309	  0.063092	
8.5625	  0.616118	  0.611643	  0.060044	
8.625	  0.607851	  0.635991	  0.058833	
8.6875	  0.619971	  0.648581	  0.059318	
8.75	  0.648774	  0.639018	  0.059598	
8.8125	  0.669161	  0.613598	  0.057852	
8.875	  0.670436	  0.591396	  0.055540	
8.9375	  0.679263	  0.589248	  0.055371	
9	  0.700827	  0.603464	  0.057438	
9.0625	  0.721123	  0.629332	  0.060960	
9.125	  0.736070	  0.664670	  0.065145	
9.1875	  0.754250	  0.692570	  0.069767	
9.25	  0.786823	  0.703410	  0.076613	
9.3125	  0.829412	  0.700937	  0.085559	
9.375	  0.875478	  0.691795	  0.093769	
9.4375	  0.902587	  0.683590	  0.097860	
9.5	  0.912033	  0.676350	  0.097433	
9.5625	  0.932442	  0.687369	  0.097025	
9.625	  0.975400	  0.716047	  0.099105	
9.6875	  0.999998	  0.738318	  0.099866	
9.75	  0.982052	  0.734173	  0.098922	
9.8125	  0.951581	  0.708465	  0.098054	
9.875	  0.920311	  0.680070	  0.094633	
9.9375	  0.897630	  0.649764	  0.089770	
10	  0.878101	  0.628573	  0.084436	
10.0625	  0.846793	  0.628874	  0.078061	
10.125	  0.811209	  0.649948	  0.073313	
10.1875	  0.802877	  0.679215	  0.072066	
10.25	  0.815645	  0.694986	  0.072610	
10.3125	  0.828223	  0.674801	  0.072363	
10.375	  0.830131	  0.630036	  0.070791	
10.4375	  0.839559	  0.591325	  0.070197	
10.5	  0.853999	  0.574023	  0.071840	
10.5625	  0.845018	  0.582843	  0.073812	
10.625	  0.806399	  0.607694	  0.076682	
10.6875	  0.748929	  0.635451	  0.079060	
10.75	  0.701398	  0.652648	  0.082242	
10.8125	  0.681719	  0.641742	  0.085061	
10.875	  0.669557	  0.610474	  0.081773	
10.9375	  0.649270	  0.566150	  0.073192	
11	  0.600689	  0.498015	  0.064310	
11.0625	  0.505262	  0.394946	  0.060313	
11.125	  0.377077	  0.271567	  0.067218	
11.1875	  0.244992	  0.161125	  0.086483	
11.25	  0.135762	  0.086566	  0.105427	
11.3125	  0.064355	  0.046500	  0.104661	
11.375	  0.029176	  0.028049	  0.084681	
11.4375	  0.012871	  0.020949	  0.055054	
11.5	  0.005217	  0.018605	  0.028254	
11.5625	  0.002478	  0.017643	  0.011151	
11.625	  0.002272	  0.017334	  0.003171	
11.6875	  0.003110	  0.017550	  0.001062	
11.75	  0.004084	  0.017804	  0.001686	
11.8125	  0.004634	  0.017841	  0.002762	
11.875	  0.004678	  0.017930	  0.003347	
11.9375	  0.004462	  0.017965	  0.003637	
12	  0.004079	  0.017925	  0.003759	
12.0625	  0.003723	  0.018117	  0.003662	
12.125	  0.003667	  0.018693	  0.003488	
12.1875	  0.003897	  0.019415	  0.003268	
12.25	  0.004240	  0.019658	  0.002935	
12.3125	  0.004453	  0.019496	  0.002609	
12.375	  0.004621	  0.019192	  0.002497	
12.4375	  0.004532	  0.018581	  0.002497	
12.5	  0.004082	  0.017937	  0.002436	
12.5625	  0.003640	  0.017497	  0.002305	
12.625	  0.003355	  0.017096	  0.002233	
12.6875	  0.003238	  0.016736	  0.002333	
12.75	  0.003233	  0.016411	  0.002637	
12.8125	  0.003288	  0.016287	  0.003077	
12.875	  0.003299	  0.016256	  0.003484	
12.9375	  0.003207	  0.016138	  0.003567	
13	  0.003106	  0.016201	  0.003102	
13.0625	  0.003038	  0.016497	  0.002540	
13.125	  0.002994	  0.016874	  0.002161	
13.1875	  0.003060	  0.017195	  0.002042	
13.25	  0.003256	  0.017414	  0.002090	
13.3125	  0.003482	  0.017509	  0.002191	
13.375	  0.003579	  0.017474	  0.002256	
13.4375	  0.003504	  0.017399	  0.002271	
13.5	  0.003295	  0.017440	  0.002230	
13.5625	  0.003040	  0.017589	  0.002121	
13.625	  0.002880	  0.017708	  0.002020	
13.6875	  0.002872	  0.017701	  0.001974	
13.75	  0.002931	  0.017542	  0.001964	
13.8125	  0.002957	  0.017341	  0.001920	
13.875	  0.002921	  0.017237	  0.001847	
13.9375	  0.002899	  0.017273	  0.001787	
14	  0.002892	  0.017394	  0.001769	
14.0625	  0.002847	  0.017461	  0.001774	
